<?xml version="1.0" encoding="UTF-8"?>
<!-- Generated by Pixelmator Pro 3.5.7 -->
<svg width="2525" height="679" viewBox="0 0 2525 679" xmlns="http://www.w3.org/2000/svg">
    <path id="Ease-the-squeeze-Streamline-city-hall-Build-our-future" fill="#ffffff" fill-rule="evenodd" stroke="none" d="M 1684.708984 342.121094 C 1672.867065 342.121094 1666.009766 333.915039 1666.009766 321.242188 L 1666.009766 285.820313 L 1680.96875 285.820313 L 1680.96875 316.255859 C 1680.96875 325.29303 1683.046021 330.175781 1689.486328 330.175781 C 1696.134399 330.175781 1699.875 325.29303 1699.875 316.255859 L 1699.875 285.820313 L 1714.832031 285.820313 L 1714.832031 340.875 L 1701.121094 340.875 L 1700.912109 332.357422 C 1697.899658 339.420959 1691.772461 342.121094 1684.708984 342.121094 Z M 1803.646484 342.121094 C 1788.376831 342.121094 1780.376953 329.447449 1780.376953 313.347656 C 1780.376953 297.247803 1788.376831 284.574219 1803.646484 284.574219 C 1811.229492 284.574219 1816.734619 287.691528 1820.058594 293.300781 L 1820.058594 267.123047 L 1835.015625 267.123047 L 1835.015625 340.875 L 1820.681641 340.875 L 1820.369141 332.980469 C 1817.356812 338.797546 1811.644897 342.121094 1803.646484 342.121094 Z M 1892.148438 342.121094 C 1875.216797 342.121094 1864.205078 330.797852 1864.205078 313.347656 C 1864.205078 295.897461 1875.216797 284.574219 1892.148438 284.574219 C 1908.976318 284.574219 1920.089844 295.897461 1920.089844 313.347656 C 1920.089844 330.797852 1908.976318 342.121094 1892.148438 342.121094 Z M 1946.787109 342.121094 C 1934.945313 342.121094 1928.089844 333.915039 1928.089844 321.242188 L 1928.089844 285.820313 L 1943.046875 285.820313 L 1943.046875 316.255859 C 1943.046875 325.29303 1945.124268 330.175781 1951.564453 330.175781 C 1958.212402 330.175781 1961.953125 325.29303 1961.953125 316.255859 L 1961.953125 285.820313 L 1976.910156 285.820313 L 1976.910156 340.875 L 1963.199219 340.875 L 1962.990234 332.357422 C 1959.977783 339.420959 1953.850586 342.121094 1946.787109 342.121094 Z M 2113.195313 342.121094 C 2101.353516 342.121094 2094.498047 333.915039 2094.498047 321.242188 L 2094.498047 285.820313 L 2109.455078 285.820313 L 2109.455078 316.255859 C 2109.455078 325.29303 2111.532471 330.175781 2117.972656 330.175781 C 2124.62085 330.175781 2128.361328 325.29303 2128.361328 316.255859 L 2128.361328 285.820313 L 2143.318359 285.820313 L 2143.318359 340.875 L 2129.607422 340.875 L 2129.400391 332.357422 C 2126.388184 339.420959 2120.259033 342.121094 2113.195313 342.121094 Z M 2216.447266 342.121094 C 2204.605469 342.121094 2197.75 333.915039 2197.75 321.242188 L 2197.75 285.820313 L 2212.707031 285.820313 L 2212.707031 316.255859 C 2212.707031 325.29303 2214.786133 330.175781 2221.226563 330.175781 C 2227.874512 330.175781 2231.613281 325.29303 2231.613281 316.255859 L 2231.613281 285.820313 L 2246.572266 285.820313 L 2246.572266 340.875 L 2232.859375 340.875 L 2232.652344 332.357422 C 2229.639893 339.420959 2223.510742 342.121094 2216.447266 342.121094 Z M 2319.699219 342.121094 C 2302.871338 342.121094 2291.861328 330.797852 2291.861328 313.347656 C 2291.861328 295.897461 2302.871338 284.574219 2319.699219 284.574219 C 2334.657227 284.574219 2346.292969 294.755493 2346.292969 314.283203 L 2346.396484 317.294922 L 2307.443359 317.294922 C 2307.962646 325.708862 2312.427979 330.798828 2319.699219 330.798828 C 2324.373535 330.798828 2328.634277 328.09906 2330.503906 323.736328 L 2345.564453 324.878906 C 2342.240479 335.474243 2332.164307 342.121094 2319.699219 342.121094 Z M 1595.894531 340.875 L 1595.894531 267.123047 L 1622.695313 267.123047 C 1642.431641 267.123047 1652.298828 273.564697 1652.298828 287.587891 C 1652.298828 296.209534 1646.897583 301.713196 1637.548828 302.751953 C 1649.078979 303.79071 1655.416016 309.920166 1655.416016 319.996094 C 1655.416016 333.603821 1645.547241 340.875 1626.849609 340.875 L 1595.894531 340.875 Z M 1726.257813 340.875 L 1726.257813 285.820313 L 1741.216797 285.820313 L 1741.216797 340.875 L 1726.257813 340.875 Z M 1768.535156 340.875 C 1759.601807 340.875 1753.681641 335.474182 1753.681641 326.021484 L 1753.681641 267.123047 L 1768.640625 267.123047 L 1768.640625 325.398438 C 1768.640625 328.099182 1770.094482 329.552734 1772.691406 329.552734 L 1776.742188 329.552734 L 1776.742188 340.875 L 1768.535156 340.875 Z M 1988.335938 340.875 L 1988.335938 285.820313 L 2002.462891 285.820313 L 2002.775391 296.832031 C 2004.852783 289.456848 2009.008545 285.820313 2016.072266 285.820313 L 2021.162109 285.820313 L 2021.162109 297.144531 L 2015.966797 297.144531 C 2006.929688 297.144531 2003.294922 301.401733 2003.294922 310.023438 L 2003.294922 340.875 L 1988.335938 340.875 Z M 2056.167969 340.875 L 2056.167969 299.117188 L 2048.167969 299.117188 L 2048.167969 287.794922 L 2056.167969 287.794922 L 2056.167969 285.09375 C 2056.167969 273.459717 2061.984863 267.123047 2074.761719 267.123047 L 2085.771484 267.123047 L 2085.771484 278.445313 L 2076.943359 278.445313 C 2073.515381 278.445313 2071.125 281.042603 2071.125 285.09375 L 2071.125 287.794922 L 2084.941406 287.794922 L 2084.941406 299.117188 L 2071.125 299.117188 L 2071.125 340.875 L 2056.167969 340.875 Z M 2177.910156 340.875 C 2165.964355 340.875 2159.730469 334.954773 2159.730469 323.216797 L 2159.730469 297.039063 L 2150.902344 297.039063 L 2150.902344 285.820313 L 2159.730469 285.820313 L 2159.730469 273.355469 L 2174.689453 273.355469 L 2174.689453 285.820313 L 2189.232422 285.820313 L 2189.232422 297.039063 L 2174.689453 297.039063 L 2174.689453 323.216797 C 2174.689453 327.371826 2176.871094 329.552734 2180.818359 329.552734 L 2189.335938 329.552734 L 2189.335938 340.875 L 2177.910156 340.875 Z M 2257.998047 340.875 L 2257.998047 285.820313 L 2272.125 285.820313 L 2272.4375 296.832031 C 2274.514893 289.456848 2278.668701 285.820313 2285.732422 285.820313 L 2290.822266 285.820313 L 2290.822266 297.144531 L 2285.628906 297.144531 C 2276.591797 297.144531 2272.955078 301.401733 2272.955078 310.023438 L 2272.955078 340.875 L 2257.998047 340.875 Z M 1808.320313 330.488281 C 1817.045898 330.488281 1820.992188 322.384827 1820.992188 313.347656 C 1820.992188 303.894958 1817.045898 295.896484 1808.320313 295.896484 C 1799.594727 295.896484 1795.751953 303.894958 1795.751953 313.347656 C 1795.751953 322.488708 1799.698608 330.488281 1808.320313 330.488281 Z M 1892.148438 330.382813 C 1900.146973 330.382813 1904.716797 324.150696 1904.716797 313.347656 C 1904.716797 302.544556 1900.146973 296.3125 1892.148438 296.3125 C 1884.150146 296.3125 1879.578125 302.544556 1879.578125 313.347656 C 1879.578125 324.150696 1884.150146 330.382813 1892.148438 330.382813 Z M 1611.060547 328.410156 L 1627.160156 328.410156 C 1634.950806 328.410156 1640.041016 325.189941 1640.041016 318.853516 C 1640.041016 312.309387 1635.054688 308.984375 1627.160156 308.984375 L 1611.060547 308.984375 L 1611.060547 328.410156 Z M 2307.546875 307.947266 L 2331.126953 307.947266 C 2330.192139 299.325562 2325.30835 295.896484 2319.699219 295.896484 C 2312.947266 295.896484 2308.481934 300.468201 2307.546875 307.947266 Z M 1611.060547 297.767578 L 1623.837891 297.767578 C 1631.940186 297.767578 1636.925781 294.651367 1636.925781 288.730469 C 1636.925781 282.497925 1632.147949 279.587891 1623.837891 279.587891 L 1611.060547 279.587891 L 1611.060547 297.767578 Z M 1726.050781 278.550781 L 1726.050781 267.123047 L 1741.527344 267.123047 L 1741.527344 278.550781 L 1726.050781 278.550781 Z M 2274.617188 233.019531 L 2274.617188 221.904297 L 2281.162109 221.904297 C 2284.486084 221.904297 2286.148682 220.969971 2287.1875 218.373047 L 2288.640625 214.839844 L 2284.382813 214.839844 L 2264.542969 162.382813 L 2278.876953 162.382813 L 2292.900391 201.855469 L 2306.404297 162.382813 L 2320.634766 162.382813 L 2298.925781 222.839844 C 2296.432617 229.903381 2291.757324 233.019531 2283.966797 233.019531 L 2274.617188 233.019531 Z M 1624.771484 218.683594 C 1607.008789 218.683594 1594.545044 208.815308 1593.402344 193.234375 L 1608.566406 192.404297 C 1610.124512 200.610474 1615.734375 205.908203 1625.291016 205.908203 C 1632.562256 205.908203 1637.445679 202.999573 1637.341797 197.494141 C 1637.341797 191.781006 1632.458984 188.664734 1620.617188 185.652344 C 1605.139771 182.016663 1594.855469 175.576538 1594.855469 163.630859 C 1594.855469 150.334778 1605.866943 142.023438 1622.279297 142.023438 C 1638.795532 142.023438 1649.910278 152.099243 1651.572266 166.849609 L 1636.509766 167.578125 C 1635.471069 159.683594 1630.069092 154.800781 1621.966797 154.800781 C 1615.007202 154.800781 1610.020752 158.332458 1610.228516 163.837891 C 1610.436279 170.485901 1618.332031 172.563782 1626.226563 174.433594 C 1642.223389 178.069214 1652.818359 185.133118 1652.818359 196.871094 C 1652.818359 210.894287 1640.352783 218.683594 1624.771484 218.683594 Z M 1764.173828 218.683594 C 1747.345947 218.683594 1736.333984 207.360748 1736.333984 189.910156 C 1736.333984 172.459564 1747.345947 161.136719 1764.173828 161.136719 C 1779.131836 161.136719 1790.765625 171.317657 1790.765625 190.845703 L 1790.869141 193.857422 L 1751.916016 193.857422 C 1752.435303 202.271362 1756.902466 207.361328 1764.173828 207.361328 C 1768.848145 207.361328 1773.106812 204.661621 1774.976563 200.298828 L 1790.039063 201.441406 C 1786.715088 212.036743 1776.638916 218.683594 1764.173828 218.683594 Z M 1816.630859 218.683594 C 1805.516113 218.683594 1796.894531 212.658447 1796.894531 202.998047 C 1796.894531 192.610474 1804.581299 188.87262 1817.773438 186.171875 L 1832.939453 183.158203 C 1832.939453 175.055908 1829.71875 171.212891 1822.966797 171.212891 C 1817.565308 171.212891 1814.033203 174.225586 1812.890625 180.146484 L 1797.724609 179.314453 C 1799.906006 167.680359 1808.839355 161.136719 1823.070313 161.136719 C 1839.482666 161.136719 1848 169.344604 1848 185.029297 L 1848 202.791016 C 1848 206.218872 1849.455688 207.050781 1851.533203 207.050781 L 1853.505859 207.050781 L 1853.505859 217.4375 L 1850.597656 217.541016 C 1846.75415 217.644897 1836.678467 218.371826 1835.328125 209.126953 C 1832.731201 214.632324 1826.499023 218.683594 1816.630859 218.683594 Z M 2089.199219 218.683594 C 2072.371338 218.683594 2061.361328 207.360565 2061.361328 189.910156 C 2061.361328 172.459747 2072.371338 161.136719 2089.199219 161.136719 C 2104.157227 161.136719 2115.792969 171.317841 2115.792969 190.845703 L 2115.896484 193.857422 L 2076.943359 193.857422 C 2077.462646 202.271362 2081.927979 207.361328 2089.199219 207.361328 C 2093.873535 207.361328 2098.134277 204.661621 2100.003906 200.298828 L 2115.064453 201.441406 C 2111.740479 212.036743 2101.664307 218.683594 2089.199219 218.683594 Z M 2170.015625 218.683594 C 2153.083984 218.683594 2142.072266 207.360535 2142.072266 189.910156 C 2142.072266 172.459778 2153.083984 161.136719 2170.015625 161.136719 C 2183.935059 161.136719 2194.944336 169.239441 2196.398438 182.431641 L 2181.025391 183.261719 C 2180.090576 176.509766 2175.625 172.875 2170.015625 172.875 C 2162.01709 172.875 2157.445313 179.107117 2157.445313 189.910156 C 2157.445313 200.713257 2162.01709 206.945313 2170.015625 206.945313 C 2175.936523 206.945313 2180.402832 203.310364 2181.337891 196.039063 L 2196.814453 196.662109 C 2195.256348 210.269775 2184.350342 218.683594 2170.015625 218.683594 Z M 2424.509766 218.683594 C 2413.39502 218.683594 2404.773438 212.658447 2404.773438 202.998047 C 2404.773438 192.610474 2412.460205 188.87262 2425.652344 186.171875 L 2440.818359 183.158203 C 2440.818359 175.055908 2437.599365 171.212891 2430.847656 171.212891 C 2425.446045 171.212891 2421.914063 174.225586 2420.771484 180.146484 L 2405.605469 179.314453 C 2407.786865 167.680359 2416.720215 161.136719 2430.951172 161.136719 C 2447.363525 161.136719 2455.880859 169.34494 2455.880859 185.029297 L 2455.880859 202.791016 C 2455.880859 206.218872 2457.334717 207.050781 2459.412109 207.050781 L 2461.386719 207.050781 L 2461.386719 217.4375 L 2458.478516 217.541016 C 2454.63501 217.644897 2444.557373 218.371826 2443.207031 209.126953 C 2440.610107 214.632324 2434.37793 218.683594 2424.509766 218.683594 Z M 1683.669922 217.4375 C 1671.724243 217.4375 1665.492188 211.517212 1665.492188 199.779297 L 1665.492188 173.601563 L 1656.662109 173.601563 L 1656.662109 162.382813 L 1665.492188 162.382813 L 1665.492188 149.917969 L 1680.449219 149.917969 L 1680.449219 162.382813 L 1694.992188 162.382813 L 1694.992188 173.601563 L 1680.449219 173.601563 L 1680.449219 199.779297 C 1680.449219 203.934326 1682.630859 206.115234 1686.578125 206.115234 L 1695.095703 206.115234 L 1695.095703 217.4375 L 1683.669922 217.4375 Z M 1702.470703 217.4375 L 1702.470703 162.382813 L 1716.597656 162.382813 L 1716.910156 173.394531 C 1718.987671 166.019348 1723.141602 162.382813 1730.205078 162.382813 L 1735.294922 162.382813 L 1735.294922 173.705078 L 1730.101563 173.705078 C 1721.064453 173.705078 1717.429688 177.964233 1717.429688 186.585938 L 1717.429688 217.4375 L 1702.470703 217.4375 Z M 1860.154297 217.4375 L 1860.154297 162.382813 L 1873.554688 162.382813 L 1873.96875 171.109375 C 1876.773438 164.772949 1882.17627 161.136719 1889.34375 161.136719 C 1897.134277 161.136719 1902.638184 165.291565 1905.027344 172.458984 C 1907.832031 164.97998 1913.545654 161.136719 1921.232422 161.136719 C 1932.347168 161.136719 1939.515625 168.407898 1939.515625 182.015625 L 1939.515625 217.4375 L 1924.556641 217.4375 L 1924.556641 186.898438 C 1924.556641 177.757385 1921.856445 173.082031 1916.455078 173.082031 C 1909.910889 173.082031 1906.482422 177.861267 1906.482422 186.898438 L 1906.482422 217.4375 L 1893.1875 217.4375 L 1893.1875 186.898438 C 1893.1875 177.757385 1890.485596 173.082031 1885.083984 173.082031 C 1878.539795 173.082031 1875.113281 177.965149 1875.113281 186.898438 L 1875.113281 217.4375 L 1860.154297 217.4375 Z M 1965.277344 217.4375 C 1956.343994 217.4375 1950.421875 212.036682 1950.421875 202.583984 L 1950.421875 143.685547 L 1965.380859 143.685547 L 1965.380859 201.960938 C 1965.380859 204.661682 1966.834717 206.115234 1969.431641 206.115234 L 1973.482422 206.115234 L 1973.482422 217.4375 L 1965.277344 217.4375 Z M 1980.650391 217.4375 L 1980.650391 162.382813 L 1995.607422 162.382813 L 1995.607422 217.4375 L 1980.650391 217.4375 Z M 2005.683594 217.4375 L 2005.683594 162.382813 L 2019.083984 162.382813 L 2019.5 171.419922 C 2022.512451 163.940918 2028.640381 161.136719 2036.015625 161.136719 C 2048.065186 161.136719 2054.921875 169.342773 2054.921875 182.015625 L 2054.921875 217.4375 L 2039.962891 217.4375 L 2039.962891 186.898438 C 2039.962891 177.965149 2037.88623 173.082031 2031.238281 173.082031 C 2024.382568 173.082031 2020.642578 177.965149 2020.642578 186.898438 L 2020.642578 217.4375 L 2005.683594 217.4375 Z M 2203.152344 217.4375 L 2203.152344 162.382813 L 2218.109375 162.382813 L 2218.109375 217.4375 L 2203.152344 217.4375 Z M 2250.830078 217.4375 C 2238.884521 217.4375 2232.652344 211.517212 2232.652344 199.779297 L 2232.652344 173.601563 L 2223.822266 173.601563 L 2223.822266 162.382813 L 2232.652344 162.382813 L 2232.652344 149.917969 L 2247.609375 149.917969 L 2247.609375 162.382813 L 2262.152344 162.382813 L 2262.152344 173.601563 L 2247.609375 173.601563 L 2247.609375 199.779297 C 2247.609375 203.934326 2249.791016 206.115234 2253.738281 206.115234 L 2262.255859 206.115234 L 2262.255859 217.4375 L 2250.830078 217.4375 Z M 2347.849609 217.4375 L 2347.849609 143.685547 L 2362.808594 143.685547 L 2362.808594 169.447266 C 2366.028564 163.422485 2371.949463 161.136719 2378.597656 161.136719 C 2390.543213 161.136719 2397.087891 170.069946 2397.087891 182.015625 L 2397.087891 217.4375 L 2382.128906 217.4375 L 2382.128906 187.314453 C 2382.128906 178.381165 2380.052246 173.498047 2373.404297 173.498047 C 2366.548584 173.498047 2362.808594 178.381165 2362.808594 187.314453 L 2362.808594 217.4375 L 2347.849609 217.4375 Z M 2484.447266 217.4375 C 2475.51416 217.4375 2469.591797 212.036682 2469.591797 202.583984 L 2469.591797 143.685547 L 2484.550781 143.685547 L 2484.550781 201.960938 C 2484.550781 204.661682 2486.004883 206.115234 2488.601563 206.115234 L 2492.652344 206.115234 L 2492.652344 217.4375 L 2484.447266 217.4375 Z M 2516.232422 217.4375 C 2507.299072 217.4375 2501.378906 212.036682 2501.378906 202.583984 L 2501.378906 143.685547 L 2516.335938 143.685547 L 2516.335938 201.960938 C 2516.335938 204.661682 2517.789795 206.115234 2520.386719 206.115234 L 2524.439453 206.115234 L 2524.439453 217.4375 L 2516.232422 217.4375 Z M 1821.097656 208.712891 C 1828.057251 208.712891 1833.25 203.5177 1833.25 193.337891 L 1833.25 192.714844 L 1823.693359 194.480469 C 1817.14917 195.72699 1812.267578 196.663452 1812.267578 202.480469 C 1812.267578 206.012268 1815.176758 208.712891 1821.097656 208.712891 Z M 2428.976563 208.712891 C 2435.936279 208.712891 2441.130859 203.5177 2441.130859 193.337891 L 2441.130859 192.714844 L 2431.574219 194.480469 C 2425.030029 195.72699 2420.148438 196.663452 2420.148438 202.480469 C 2420.148438 206.012268 2423.055664 208.712891 2428.976563 208.712891 Z M 1752.019531 184.509766 L 1775.599609 184.509766 C 1774.664795 175.888062 1769.783081 172.458984 1764.173828 172.458984 C 1757.421875 172.458984 1752.954346 177.030701 1752.019531 184.509766 Z M 2077.046875 184.509766 L 2100.626953 184.509766 C 2099.692139 175.888062 2094.80835 172.458984 2089.199219 172.458984 C 2082.447266 172.458984 2077.981689 177.030701 2077.046875 184.509766 Z M 1980.441406 155.111328 L 1980.441406 143.685547 L 1995.919922 143.685547 L 1995.919922 155.111328 L 1980.441406 155.111328 Z M 2202.943359 155.111328 L 2202.943359 143.685547 L 2218.421875 143.685547 L 2218.421875 155.111328 L 2202.943359 155.111328 Z M 2128.984375 109.582031 L 2128.984375 86.3125 C 2125.764404 92.129517 2120.155762 95.246094 2112.988281 95.246094 C 2097.303223 95.246094 2089.304688 82.573486 2089.304688 66.472656 C 2089.304688 50.371948 2097.303223 37.699219 2112.988281 37.699219 C 2120.571289 37.699219 2126.284424 41.024414 2129.296875 46.945313 L 2129.607422 38.945313 L 2143.941406 38.945313 L 2143.941406 109.582031 L 2128.984375 109.582031 Z M 1673.177734 95.246094 C 1662.06311 95.246094 1653.441406 89.220947 1653.441406 79.560547 C 1653.441406 69.172974 1661.128052 65.435181 1674.320313 62.734375 L 1689.486328 59.720703 C 1689.486328 51.618408 1686.265625 47.775391 1679.513672 47.775391 C 1674.112183 47.775391 1670.5802 50.788086 1669.4375 56.708984 L 1654.273438 55.876953 C 1656.454712 44.242798 1665.388184 37.699219 1679.619141 37.699219 C 1696.031494 37.699219 1704.548828 45.904663 1704.548828 61.589844 L 1704.548828 79.353516 C 1704.548828 82.781372 1706.002563 83.613281 1708.080078 83.613281 L 1710.054688 83.613281 L 1710.054688 94 L 1707.144531 94.103516 C 1703.301147 94.207397 1693.225342 94.934448 1691.875 85.689453 C 1689.278076 91.194824 1683.045898 95.246094 1673.177734 95.246094 Z M 1740.177734 95.246094 C 1724.388672 95.246094 1714.10437 88.286743 1713.273438 76.548828 L 1728.335938 75.822266 C 1729.374756 81.223755 1733.321411 84.443359 1739.761719 84.443359 C 1743.916748 84.443359 1749.006226 82.885498 1748.902344 78.730469 C 1748.798462 73.848389 1743.294067 73.017578 1737.892578 71.875 C 1723.246094 69.070313 1714.519531 65.3302 1714.519531 55.150391 C 1714.519531 44.139526 1723.661621 37.595703 1739.035156 37.595703 C 1752.642822 37.595703 1761.991943 44.659546 1763.757813 56.085938 L 1748.798828 56.708984 C 1747.864014 51.515259 1743.294312 48.294922 1738.412109 48.294922 C 1733.530029 48.294922 1729.790405 50.892212 1729.998047 54.943359 C 1730.101929 59.202271 1735.087158 60.967407 1740.384766 61.902344 C 1756.17395 64.395386 1764.277344 68.549561 1764.277344 79.041016 C 1764.277344 90.05188 1753.785522 95.246094 1740.177734 95.246094 Z M 1797.517578 95.246094 C 1780.689819 95.246094 1769.677734 83.923828 1769.677734 66.472656 C 1769.677734 49.021606 1780.689819 37.699219 1797.517578 37.699219 C 1812.475708 37.699219 1824.109375 47.879639 1824.109375 67.408203 L 1824.212891 70.419922 L 1785.259766 70.419922 C 1785.779175 78.83374 1790.246338 83.923828 1797.517578 83.923828 C 1802.192017 83.923828 1806.450562 81.224121 1808.320313 76.861328 L 1823.382813 78.003906 C 1820.058716 88.599243 1809.982666 95.246094 1797.517578 95.246094 Z M 1980.234375 95.246094 C 1963.406494 95.246094 1952.396484 83.923828 1952.396484 66.472656 C 1952.396484 49.021606 1963.406494 37.699219 1980.234375 37.699219 C 1995.192383 37.699219 2006.826172 47.879639 2006.826172 67.408203 L 2006.929688 70.419922 L 1967.976563 70.419922 C 1968.49585 78.83374 1972.963135 83.923828 1980.234375 83.923828 C 1984.908691 83.923828 1989.16748 81.224121 1991.037109 76.861328 L 2006.099609 78.003906 C 2002.775635 88.599243 1992.699463 95.246094 1980.234375 95.246094 Z M 2060.011719 95.246094 C 2044.222656 95.246094 2033.938477 88.286743 2033.107422 76.548828 L 2048.167969 75.822266 C 2049.206787 81.223755 2053.155518 84.443359 2059.595703 84.443359 C 2063.750732 84.443359 2068.840332 82.885498 2068.736328 78.730469 C 2068.632568 73.848389 2063.128174 73.017578 2057.726563 71.875 C 2043.080078 69.070313 2034.353516 65.3302 2034.353516 55.150391 C 2034.353516 44.139526 2043.493652 37.595703 2058.867188 37.595703 C 2072.474854 37.595703 2081.823975 44.659546 2083.589844 56.085938 L 2068.632813 56.708984 C 2067.697754 51.515259 2063.126465 48.294922 2058.244141 48.294922 C 2053.362061 48.294922 2049.624268 50.892212 2049.832031 54.943359 C 2049.935791 59.202271 2054.921143 60.967407 2060.21875 61.902344 C 2076.007813 64.395386 2084.109375 68.549561 2084.109375 79.041016 C 2084.109375 90.05188 2073.619629 95.246094 2060.011719 95.246094 Z M 2173.234375 95.246094 C 2161.392578 95.246094 2154.537109 87.039917 2154.537109 74.367188 L 2154.537109 38.945313 L 2169.496094 38.945313 L 2169.496094 69.380859 C 2169.496094 78.418091 2171.573486 83.300781 2178.013672 83.300781 C 2184.661865 83.300781 2188.400391 78.418091 2188.400391 69.380859 L 2188.400391 38.945313 L 2203.359375 38.945313 L 2203.359375 94 L 2189.648438 94 L 2189.439453 85.482422 C 2186.427002 92.546021 2180.297852 95.246094 2173.234375 95.246094 Z M 2239.611328 95.246094 C 2222.783447 95.246094 2211.773438 83.923828 2211.773438 66.472656 C 2211.773438 49.021606 2222.783447 37.699219 2239.611328 37.699219 C 2254.569336 37.699219 2266.203125 47.879639 2266.203125 67.408203 L 2266.308594 70.419922 L 2227.355469 70.419922 C 2227.874756 78.83374 2232.340088 83.923828 2239.611328 83.923828 C 2244.285645 83.923828 2248.544434 81.224121 2250.414063 76.861328 L 2265.476563 78.003906 C 2262.152588 88.599243 2252.076416 95.246094 2239.611328 95.246094 Z M 2299.548828 95.246094 C 2282.720947 95.246094 2271.708984 83.923828 2271.708984 66.472656 C 2271.708984 49.021606 2282.720947 37.699219 2299.548828 37.699219 C 2314.506836 37.699219 2326.140625 47.879639 2326.140625 67.408203 L 2326.244141 70.419922 L 2287.291016 70.419922 C 2287.810303 78.83374 2292.277344 83.923828 2299.548828 83.923828 C 2304.223145 83.923828 2308.481934 81.224121 2310.351563 76.861328 L 2325.414063 78.003906 C 2322.090088 88.599243 2312.013916 95.246094 2299.548828 95.246094 Z M 2415.472656 95.246094 C 2398.644775 95.246094 2387.634766 83.923828 2387.634766 66.472656 C 2387.634766 49.021606 2398.644775 37.699219 2415.472656 37.699219 C 2430.430908 37.699219 2442.066406 47.879639 2442.066406 67.408203 L 2442.169922 70.419922 L 2403.214844 70.419922 C 2403.734375 78.83374 2408.201416 83.923828 2415.472656 83.923828 C 2420.147217 83.923828 2424.407471 81.224121 2426.277344 76.861328 L 2441.337891 78.003906 C 2438.013916 88.599243 2427.937744 95.246094 2415.472656 95.246094 Z M 1595.894531 94 L 1595.894531 20.248047 L 1646.689453 20.248047 L 1646.689453 33.128906 L 1611.060547 33.128906 L 1611.060547 50.683594 L 1645.443359 50.683594 L 1645.443359 63.357422 L 1611.060547 63.357422 L 1611.060547 81.119141 L 1647.521484 81.119141 L 1647.521484 94 L 1595.894531 94 Z M 1877.916016 94 C 1865.970459 94 1859.738281 88.079712 1859.738281 76.341797 L 1859.738281 50.164063 L 1850.910156 50.164063 L 1850.910156 38.945313 L 1859.738281 38.945313 L 1859.738281 26.480469 L 1874.697266 26.480469 L 1874.697266 38.945313 L 1889.238281 38.945313 L 1889.238281 50.164063 L 1874.697266 50.164063 L 1874.697266 76.341797 C 1874.697266 80.496826 1876.878906 82.677734 1880.826172 82.677734 L 1889.34375 82.677734 L 1889.34375 94 L 1877.916016 94 Z M 1896.71875 94 L 1896.71875 20.248047 L 1911.675781 20.248047 L 1911.675781 46.009766 C 1914.895752 39.984863 1920.81665 37.699219 1927.464844 37.699219 C 1939.4104 37.699219 1945.955078 46.632446 1945.955078 58.578125 L 1945.955078 94 L 1930.998047 94 L 1930.998047 63.876953 C 1930.998047 54.943604 1928.919434 50.060547 1922.271484 50.060547 C 1915.415771 50.060547 1911.675781 54.943604 1911.675781 63.876953 L 1911.675781 94 L 1896.71875 94 Z M 2332.269531 94 L 2332.269531 81.951172 L 2363.535156 50.267578 L 2333.826172 50.267578 L 2333.826172 38.945313 L 2381.195313 38.945313 L 2381.195313 50.890625 L 2349.615234 82.677734 L 2382.025391 82.677734 L 2382.025391 94 L 2332.269531 94 Z M 1677.644531 85.273438 C 1684.604248 85.273438 1689.798828 80.0802 1689.798828 69.900391 L 1689.798828 69.277344 L 1680.242188 71.042969 C 1673.697998 72.289551 1668.814453 73.223999 1668.814453 79.041016 C 1668.814453 82.572876 1671.723633 85.273438 1677.644531 85.273438 Z M 2117.349609 83.613281 C 2126.075195 83.613281 2130.023438 75.61377 2130.023438 66.472656 C 2130.023438 57.435547 2126.075195 49.333984 2117.349609 49.333984 C 2108.831787 49.333984 2104.78125 57.331665 2104.78125 66.472656 C 2104.78125 75.717651 2108.728027 83.613281 2117.349609 83.613281 Z M 1785.363281 61.072266 L 1808.943359 61.072266 C 1808.008423 52.450562 1803.126953 49.021484 1797.517578 49.021484 C 1790.765747 49.021484 1786.298218 53.593262 1785.363281 61.072266 Z M 1968.080078 61.072266 L 1991.660156 61.072266 C 1990.725342 52.450562 1985.84375 49.021484 1980.234375 49.021484 C 1973.482422 49.021484 1969.015137 53.593262 1968.080078 61.072266 Z M 2227.458984 61.072266 L 2251.039063 61.072266 C 2250.104248 52.450562 2245.220703 49.021484 2239.611328 49.021484 C 2232.859375 49.021484 2228.394043 53.593262 2227.458984 61.072266 Z M 2287.394531 61.072266 L 2310.974609 61.072266 C 2310.039795 52.450562 2305.157959 49.021484 2299.548828 49.021484 C 2292.796875 49.021484 2288.329346 53.593262 2287.394531 61.072266 Z M 2403.320313 61.072266 L 2426.900391 61.072266 C 2425.965332 52.450562 2421.082031 49.021484 2415.472656 49.021484 C 2408.720703 49.021484 2404.255127 53.593262 2403.320313 61.072266 Z"/>
    <path id="a-brighter-future-for-London-is-possible-Gabe-for-London--website-coming-soon" fill="#ffffff" fill-rule="evenodd" stroke="none" opacity="0.5" d="M 1693.767578 656.078125 C 1685.76355 656.078125 1679.759521 651.869324 1677.896484 645.521484 L 1685.349609 645.037109 C 1686.729614 648.141968 1689.626831 650.005859 1693.835938 650.005859 C 1699.769897 650.005859 1703.357422 647.38446 1703.357422 642.347656 L 1703.357422 636.964844 C 1701.218384 640.966736 1697.147095 643.037109 1693.283203 643.037109 C 1683.278198 643.037109 1676.931641 635.722656 1676.931641 625.373047 C 1676.931641 614.954285 1683.485107 607.501953 1693.283203 607.501953 C 1698.044189 607.501953 1701.97876 610.055542 1703.634766 613.988281 L 1703.634766 608.330078 L 1710.533203 608.330078 L 1710.533203 641.105469 C 1710.533203 650.765137 1703.703613 656.078125 1693.767578 656.078125 Z M 675.533203 646.003906 C 661.457214 646.003906 653.109375 634.68811 653.109375 620.474609 C 653.109375 606.192139 661.388855 594.806641 675.671875 594.806641 C 686.297852 594.806641 693.336914 601.291382 695.544922 610.537109 L 687.953125 611.021484 C 686.43512 605.36377 682.226868 601.568359 675.671875 601.568359 C 665.183899 601.568359 660.699219 610.262878 660.699219 620.474609 C 660.699219 630.617249 665.252869 639.242188 675.671875 639.242188 C 683.537903 639.242188 687.953186 633.653564 688.574219 626.339844 L 675.603516 626.339844 L 675.603516 619.853516 L 695.75 619.853516 L 695.75 644.900391 L 690.783203 644.900391 L 690.230469 637.171875 C 688.022461 642.415771 682.088196 646.003906 675.533203 646.003906 Z M 712.794922 645.728516 C 705.480896 645.728516 699.615234 641.863342 699.615234 635.308594 C 699.615234 627.925842 705.065063 625.856506 713.414063 624.269531 L 723.902344 622.199219 C 723.833313 616.334473 721.143738 613.505859 715.761719 613.505859 C 711.483704 613.505859 708.654114 615.643982 707.619141 619.714844 L 700.236328 619.232422 C 701.685303 611.918701 707.48175 607.501953 715.761719 607.501953 C 725.697754 607.501953 731.078125 613.023254 731.078125 622.958984 L 731.078125 636.757813 C 731.078125 638.482788 731.838135 639.103516 733.287109 639.103516 L 734.804688 639.103516 L 734.804688 644.900391 L 732.390625 644.900391 C 729.078613 644.96936 724.731079 644.278442 724.455078 639.310547 C 722.868042 642.760437 718.797913 645.728516 712.794922 645.728516 Z M 758.126953 645.728516 C 752.606934 645.728516 748.743164 643.520813 746.742188 639.794922 L 746.535156 644.900391 L 739.841797 644.900391 L 739.841797 595.910156 L 747.017578 595.910156 L 747.017578 613.091797 C 749.156555 609.434814 752.882935 607.501953 758.126953 607.501953 C 768.614929 607.501953 773.582031 616.403625 773.582031 626.615234 C 773.582031 636.826843 768.614929 645.728516 758.126953 645.728516 Z M 794.351563 645.728516 C 783.863586 645.728516 777.033203 638.275879 777.033203 626.615234 C 777.033203 614.954712 783.863586 607.501953 794.351563 607.501953 C 802.907593 607.501953 810.359436 613.160645 810.773438 626.201172 L 810.84375 628.685547 L 784.554688 628.685547 C 785.106689 635.516296 788.555603 639.517578 794.351563 639.517578 C 798.008545 639.517578 801.251526 637.448547 802.769531 633.929688 L 810.291016 634.480469 C 808.151978 641.380249 801.734558 645.728516 794.351563 645.728516 Z M 869.630859 645.728516 C 859.142883 645.728516 852.3125 638.275879 852.3125 626.615234 C 852.3125 614.954712 859.142883 607.501953 869.630859 607.501953 C 880.118896 607.501953 886.949219 614.954712 886.949219 626.615234 C 886.949219 638.275879 880.118896 645.728516 869.630859 645.728516 Z M 981.134766 645.728516 C 970.646729 645.728516 963.816406 638.275879 963.816406 626.615234 C 963.816406 614.954712 970.646729 607.501953 981.134766 607.501953 C 991.622742 607.501953 998.453125 614.954712 998.453125 626.615234 C 998.453125 638.275879 991.622742 645.728516 981.134766 645.728516 Z M 1054.136719 645.728516 C 1043.648804 645.728516 1038.681641 636.826843 1038.681641 626.615234 C 1038.681641 616.403625 1043.648804 607.501953 1054.136719 607.501953 C 1059.380737 607.501953 1063.107178 609.434814 1065.246094 613.091797 L 1065.246094 595.910156 L 1072.421875 595.910156 L 1072.421875 644.900391 L 1065.728516 644.900391 L 1065.521484 639.794922 C 1063.520508 643.520813 1059.656738 645.728516 1054.136719 645.728516 Z M 1095.537109 645.728516 C 1085.049072 645.728516 1078.21875 638.275879 1078.21875 626.615234 C 1078.21875 614.954712 1085.049072 607.501953 1095.537109 607.501953 C 1106.025146 607.501953 1112.855469 614.954712 1112.855469 626.615234 C 1112.855469 638.275879 1106.025146 645.728516 1095.537109 645.728516 Z M 1312.404297 645.728516 C 1301.91626 645.728516 1295.085938 638.275879 1295.085938 626.615234 C 1295.085938 614.954712 1301.91626 607.501953 1312.404297 607.501953 C 1320.960205 607.501953 1328.412109 613.160645 1328.826172 626.201172 L 1328.894531 628.685547 L 1302.605469 628.685547 C 1303.157471 635.516296 1306.608276 639.517578 1312.404297 639.517578 C 1316.061279 639.517578 1319.304199 637.448547 1320.822266 633.929688 L 1328.34375 634.480469 C 1326.204712 641.380249 1319.787231 645.728516 1312.404297 645.728516 Z M 1351.802734 645.728516 C 1346.282715 645.728516 1342.418945 643.520813 1340.417969 639.794922 L 1340.210938 644.900391 L 1333.517578 644.900391 L 1333.517578 595.910156 L 1340.693359 595.910156 L 1340.693359 613.091797 C 1342.832397 609.434814 1346.558716 607.501953 1351.802734 607.501953 C 1362.290771 607.501953 1367.259766 616.403625 1367.259766 626.615234 C 1367.259766 636.826843 1362.290771 645.728516 1351.802734 645.728516 Z M 1387.199219 645.728516 C 1377.953247 645.728516 1371.260986 640.966675 1370.708984 633.376953 L 1378.091797 632.894531 C 1378.781738 637.034424 1382.024902 639.587891 1387.130859 639.587891 C 1390.373901 639.587891 1394.582031 638.482422 1394.582031 635.101563 C 1394.513062 631.09967 1389.890625 630.617676 1385.888672 629.720703 C 1378.298584 628.064697 1371.605469 626.06311 1371.605469 619.025391 C 1371.605469 611.91864 1377.332153 607.501953 1386.371094 607.501953 C 1394.168091 607.501953 1400.241089 612.12439 1401.414063 619.369141 L 1394.03125 619.783203 C 1393.272217 615.919312 1389.545044 613.574219 1385.75 613.574219 C 1382.024048 613.574219 1378.989624 615.505188 1379.058594 618.748047 C 1379.058594 622.059937 1383.404907 623.440857 1387.130859 624.130859 C 1396.10083 625.786865 1402.035156 628.203186 1402.035156 635.378906 C 1402.035156 642.554626 1394.720215 645.728516 1387.199219 645.728516 Z M 1459.994141 645.728516 C 1449.506104 645.728516 1442.675781 638.275879 1442.675781 626.615234 C 1442.675781 614.954712 1449.506104 607.501953 1459.994141 607.501953 C 1468.550171 607.501953 1476.004028 613.160645 1476.417969 626.201172 L 1476.486328 628.685547 L 1450.197266 628.685547 C 1450.749268 635.516296 1454.19812 639.517578 1459.994141 639.517578 C 1463.651123 639.517578 1466.894165 637.448547 1468.412109 633.929688 L 1475.933594 634.480469 C 1473.794678 641.380249 1467.377197 645.728516 1459.994141 645.728516 Z M 1511.332031 645.728516 C 1500.843994 645.728516 1494.011719 638.275879 1494.011719 626.615234 C 1494.011719 614.954712 1500.843994 607.501953 1511.332031 607.501953 C 1519.335938 607.501953 1526.303467 612.470886 1527.269531 620.681641 L 1519.818359 621.095703 C 1519.128418 616.472839 1515.471924 613.78125 1511.332031 613.78125 C 1505.052979 613.78125 1501.464844 618.611511 1501.464844 626.615234 C 1501.464844 634.618958 1505.052979 639.449219 1511.332031 639.449219 C 1515.678955 639.449219 1519.334717 636.619568 1520.09375 631.513672 L 1527.615234 631.927734 C 1526.442261 640.483459 1519.611938 645.728516 1511.332031 645.728516 Z M 1547.693359 645.728516 C 1537.205444 645.728516 1530.375 638.275879 1530.375 626.615234 C 1530.375 614.954712 1537.205444 607.501953 1547.693359 607.501953 C 1558.181396 607.501953 1565.013672 614.954712 1565.013672 626.615234 C 1565.013672 638.275879 1558.181396 645.728516 1547.693359 645.728516 Z M 1747.035156 645.728516 C 1737.789063 645.728516 1731.094971 640.966675 1730.542969 633.376953 L 1737.927734 632.894531 C 1738.617676 637.034424 1741.86084 639.587891 1746.966797 639.587891 C 1750.209839 639.587891 1754.417969 638.482422 1754.417969 635.101563 C 1754.348999 631.09967 1749.726563 630.617676 1745.724609 629.720703 C 1738.134644 628.064697 1731.441406 626.06311 1731.441406 619.025391 C 1731.441406 611.91864 1737.167969 607.501953 1746.207031 607.501953 C 1754.004028 607.501953 1760.077026 612.12439 1761.25 619.369141 L 1753.865234 619.783203 C 1753.106323 615.919312 1749.380859 613.574219 1745.585938 613.574219 C 1741.859863 613.574219 1738.823608 615.505188 1738.892578 618.748047 C 1738.892578 622.059937 1743.240845 623.440857 1746.966797 624.130859 C 1755.93689 625.786865 1761.869141 628.203186 1761.869141 635.378906 C 1761.869141 642.554626 1754.556152 645.728516 1747.035156 645.728516 Z M 1782.638672 645.728516 C 1772.150635 645.728516 1765.320313 638.275879 1765.320313 626.615234 C 1765.320313 614.954712 1772.150635 607.501953 1782.638672 607.501953 C 1793.126587 607.501953 1799.957031 614.954712 1799.957031 626.615234 C 1799.957031 638.275879 1793.126587 645.728516 1782.638672 645.728516 Z M 1820.726563 645.728516 C 1810.238525 645.728516 1803.408203 638.275879 1803.408203 626.615234 C 1803.408203 614.954712 1810.238525 607.501953 1820.726563 607.501953 C 1831.214478 607.501953 1838.046875 614.954712 1838.046875 626.615234 C 1838.046875 638.275879 1831.214478 645.728516 1820.726563 645.728516 Z M 834.441406 644.900391 L 834.441406 614.677734 L 829.404297 614.677734 L 829.404297 608.744141 L 834.441406 608.744141 L 834.441406 606.605469 C 834.441406 599.981689 837.753723 595.910156 845.136719 595.910156 L 851.277344 595.910156 L 851.277344 601.84375 L 845.619141 601.84375 C 843.273132 601.84375 841.617188 603.638489 841.617188 606.605469 L 841.617188 608.744141 L 850.794922 608.744141 L 850.794922 614.677734 L 841.617188 614.677734 L 841.617188 644.900391 L 834.441406 644.900391 Z M 892.400391 644.900391 L 892.400391 608.330078 L 898.955078 608.330078 L 899.162109 615.230469 C 900.335083 610.538696 903.096436 608.330078 907.857422 608.330078 L 911.375 608.330078 L 911.375 614.263672 L 907.787109 614.263672 C 902.129089 614.263672 899.576172 617.369019 899.576172 623.509766 L 899.576172 644.900391 L 892.400391 644.900391 Z M 931.800781 644.900391 L 931.800781 595.910156 L 939.113281 595.910156 L 939.113281 638.138672 L 962.988281 638.138672 L 962.988281 644.900391 L 931.800781 644.900391 Z M 1003.904297 644.900391 L 1003.904297 608.330078 L 1010.390625 608.330078 L 1010.597656 614.539063 C 1012.529663 609.64032 1016.738403 607.501953 1021.775391 607.501953 C 1029.98645 607.501953 1034.126953 613.43634 1034.126953 621.371094 L 1034.126953 644.900391 L 1026.951172 644.900391 L 1026.951172 623.509766 C 1026.951172 617.093018 1025.018066 613.574219 1019.912109 613.574219 C 1014.46106 613.574219 1011.080078 617.093018 1011.080078 623.509766 L 1011.080078 644.900391 L 1003.904297 644.900391 Z M 1118.306641 644.900391 L 1118.306641 608.330078 L 1124.792969 608.330078 L 1125 614.539063 C 1126.932007 609.64032 1131.140747 607.501953 1136.177734 607.501953 C 1144.388794 607.501953 1148.529297 613.43634 1148.529297 621.371094 L 1148.529297 644.900391 L 1141.353516 644.900391 L 1141.353516 623.509766 C 1141.353516 617.093018 1139.420532 613.574219 1134.314453 613.574219 C 1128.863525 613.574219 1125.482422 617.093018 1125.482422 623.509766 L 1125.482422 644.900391 L 1118.306641 644.900391 Z M 1252.097656 644.900391 L 1240.919922 608.330078 L 1248.234375 608.330078 L 1256.375 636.826172 L 1264.517578 608.330078 L 1271.417969 608.330078 L 1279.628906 636.826172 L 1287.701172 608.330078 L 1295.085938 608.330078 L 1283.837891 644.900391 L 1275.695313 644.900391 L 1267.96875 618.611328 L 1260.240234 644.900391 L 1252.097656 644.900391 Z M 1407.486328 644.900391 L 1407.486328 608.330078 L 1414.662109 608.330078 L 1414.662109 644.900391 L 1407.486328 644.900391 Z M 1435.085938 644.900391 C 1428.047852 644.900391 1424.253906 641.242188 1424.253906 634.480469 L 1424.253906 614.263672 L 1418.732422 614.263672 L 1418.732422 608.330078 L 1424.253906 608.330078 L 1424.253906 600.050781 L 1431.429688 600.050781 L 1431.429688 608.330078 L 1441.158203 608.330078 L 1441.158203 614.263672 L 1431.429688 614.263672 L 1431.429688 634.480469 C 1431.429688 637.447327 1432.878052 638.966797 1435.707031 638.966797 L 1441.089844 638.966797 L 1441.089844 644.900391 L 1435.085938 644.900391 Z M 1570.464844 644.900391 L 1570.464844 608.330078 L 1576.949219 608.330078 L 1577.15625 614.333984 C 1578.950317 609.987244 1582.677124 607.501953 1587.576172 607.501953 C 1592.820068 607.501953 1596.614136 610.262024 1598.201172 615.091797 C 1599.857178 610.124023 1603.653809 607.501953 1609.173828 607.501953 C 1616.625854 607.501953 1621.041016 612.470337 1621.041016 621.371094 L 1621.041016 644.900391 L 1613.865234 644.900391 L 1613.865234 623.509766 C 1613.865234 617.093018 1611.518921 613.574219 1607.378906 613.574219 C 1602.134888 613.574219 1599.167969 617.161987 1599.167969 623.509766 L 1599.167969 644.900391 L 1592.337891 644.900391 L 1592.337891 623.509766 C 1592.337891 617.231018 1589.991577 613.574219 1585.851563 613.574219 C 1580.676636 613.574219 1577.640625 617.231018 1577.640625 623.509766 L 1577.640625 644.900391 L 1570.464844 644.900391 Z M 1627.595703 644.900391 L 1627.595703 608.330078 L 1634.771484 608.330078 L 1634.771484 644.900391 L 1627.595703 644.900391 Z M 1642.154297 644.900391 L 1642.154297 608.330078 L 1648.640625 608.330078 L 1648.847656 614.539063 C 1650.779663 609.64032 1654.988403 607.501953 1660.025391 607.501953 C 1668.23645 607.501953 1672.376953 613.43634 1672.376953 621.371094 L 1672.376953 644.900391 L 1665.201172 644.900391 L 1665.201172 623.509766 C 1665.201172 617.093018 1663.268188 613.574219 1658.162109 613.574219 C 1652.711182 613.574219 1649.332031 617.093018 1649.332031 623.509766 L 1649.332031 644.900391 L 1642.154297 644.900391 Z M 1843.496094 644.900391 L 1843.496094 608.330078 L 1849.982422 608.330078 L 1850.189453 614.539063 C 1852.12146 609.64032 1856.3302 607.501953 1861.367188 607.501953 C 1869.578125 607.501953 1873.71875 613.43634 1873.71875 621.371094 L 1873.71875 644.900391 L 1866.542969 644.900391 L 1866.542969 623.509766 C 1866.542969 617.093018 1864.611816 613.574219 1859.505859 613.574219 C 1854.05481 613.574219 1850.673828 617.093018 1850.673828 623.509766 L 1850.673828 644.900391 L 1843.496094 644.900391 Z M 714.173828 640.070313 C 719.762817 640.070313 724.041016 636.136536 724.041016 628.132813 L 724.041016 627.787109 L 716.175781 629.167969 C 711.069763 630.064941 707.066406 630.47998 707.066406 635.171875 C 707.066406 637.862732 709.343811 640.070313 714.173828 640.070313 Z M 756.332031 639.449219 C 763.301025 639.449219 766.130859 633.169983 766.130859 626.615234 C 766.130859 619.784485 763.369995 613.574219 756.332031 613.574219 C 749.294006 613.574219 746.466797 619.853516 746.466797 626.615234 C 746.466797 633.169983 749.294006 639.449219 756.332031 639.449219 Z M 869.630859 639.449219 C 875.909851 639.449219 879.498047 634.618958 879.498047 626.615234 C 879.498047 618.611511 875.909851 613.78125 869.630859 613.78125 C 863.351868 613.78125 859.763672 618.611511 859.763672 626.615234 C 859.763672 634.618958 863.351868 639.449219 869.630859 639.449219 Z M 981.134766 639.449219 C 987.413757 639.449219 991.001953 634.618958 991.001953 626.615234 C 991.001953 618.611511 987.413757 613.78125 981.134766 613.78125 C 974.855774 613.78125 971.267578 618.611511 971.267578 626.615234 C 971.267578 634.618958 974.855774 639.449219 981.134766 639.449219 Z M 1055.931641 639.449219 C 1062.969604 639.449219 1065.798828 633.169983 1065.798828 626.615234 C 1065.798828 619.853516 1062.969604 613.574219 1055.931641 613.574219 C 1048.893555 613.574219 1046.132813 619.784485 1046.132813 626.615234 C 1046.132813 633.169983 1048.962646 639.449219 1055.931641 639.449219 Z M 1095.537109 639.449219 C 1101.816162 639.449219 1105.404297 634.618958 1105.404297 626.615234 C 1105.404297 618.611511 1101.816162 613.78125 1095.537109 613.78125 C 1089.258179 613.78125 1085.669922 618.611511 1085.669922 626.615234 C 1085.669922 634.618958 1089.258179 639.449219 1095.537109 639.449219 Z M 1350.009766 639.449219 C 1356.97876 639.449219 1359.806641 633.169983 1359.806641 626.615234 C 1359.806641 619.784485 1357.047729 613.574219 1350.009766 613.574219 C 1342.97168 613.574219 1340.142578 619.853516 1340.142578 626.615234 C 1340.142578 633.169983 1342.97168 639.449219 1350.009766 639.449219 Z M 1547.693359 639.449219 C 1553.972412 639.449219 1557.560547 634.618958 1557.560547 626.615234 C 1557.560547 618.611511 1553.972412 613.78125 1547.693359 613.78125 C 1541.414429 613.78125 1537.826172 618.611511 1537.826172 626.615234 C 1537.826172 634.618958 1541.414429 639.449219 1547.693359 639.449219 Z M 1782.638672 639.449219 C 1788.917603 639.449219 1792.505859 634.618958 1792.505859 626.615234 C 1792.505859 618.611511 1788.917603 613.78125 1782.638672 613.78125 C 1776.359619 613.78125 1772.771484 618.611511 1772.771484 626.615234 C 1772.771484 634.618958 1776.359619 639.449219 1782.638672 639.449219 Z M 1820.726563 639.449219 C 1827.005493 639.449219 1830.59375 634.618958 1830.59375 626.615234 C 1830.59375 618.611511 1827.005493 613.78125 1820.726563 613.78125 C 1814.44751 613.78125 1810.859375 618.611511 1810.859375 626.615234 C 1810.859375 634.618958 1814.44751 639.449219 1820.726563 639.449219 Z M 1693.974609 636.964844 C 1699.8396 636.964844 1703.495483 632.134766 1703.564453 625.373047 C 1703.633545 618.611328 1699.977661 613.78125 1693.974609 613.78125 C 1687.971558 613.78125 1684.382813 618.611328 1684.382813 625.373047 C 1684.382813 632.134766 1688.040649 636.964844 1693.974609 636.964844 Z M 1168.125 627.925781 L 1168.125 621.578125 L 1224.980469 621.578125 L 1224.980469 627.925781 L 1168.125 627.925781 Z M 784.691406 623.164063 L 803.253906 623.164063 C 802.287903 616.126343 798.491577 613.712891 794.351563 613.712891 C 788.969543 613.712891 785.588379 617.230347 784.691406 623.164063 Z M 1302.744141 623.164063 L 1321.304688 623.164063 C 1320.338623 616.126343 1316.544189 613.712891 1312.404297 613.712891 C 1307.022217 613.712891 1303.641113 617.230347 1302.744141 623.164063 Z M 1450.335938 623.164063 L 1468.896484 623.164063 C 1467.930542 616.126343 1464.134155 613.712891 1459.994141 613.712891 C 1454.612183 613.712891 1451.233032 617.230347 1450.335938 623.164063 Z M 1407.417969 602.878906 L 1407.417969 595.910156 L 1414.869141 595.910156 L 1414.869141 602.878906 L 1407.417969 602.878906 Z M 1627.527344 602.878906 L 1627.527344 595.910156 L 1634.978516 595.910156 L 1634.978516 602.878906 L 1627.527344 602.878906 Z M 829.369141 571.177734 C 821.365112 571.177734 815.362976 566.969055 813.5 560.621094 L 820.951172 560.138672 C 822.331177 563.243652 825.228516 565.105469 829.4375 565.105469 C 835.371521 565.105469 838.960938 562.484253 838.960938 557.447266 L 838.960938 552.064453 C 836.821899 556.066406 832.750732 558.136719 828.886719 558.136719 C 818.881714 558.136719 812.533203 550.822571 812.533203 540.472656 C 812.533203 530.053711 819.088745 522.601563 828.886719 522.601563 C 833.647766 522.601563 837.580322 525.154907 839.236328 529.087891 L 839.236328 523.429688 L 846.136719 523.429688 L 846.136719 556.205078 C 846.136719 565.865051 839.305115 571.177734 829.369141 571.177734 Z M 1596.650391 570.349609 L 1596.650391 523.429688 L 1603.341797 523.429688 L 1603.548828 528.742188 C 1605.549805 524.809204 1609.345215 522.601563 1614.658203 522.601563 C 1625.422241 522.601563 1630.390625 531.503296 1630.390625 541.714844 C 1630.390625 551.926636 1625.422241 560.828125 1614.658203 560.828125 C 1609.621216 560.828125 1605.89624 558.826233 1603.826172 555.03125 L 1603.826172 570.349609 L 1596.650391 570.349609 Z M 696.267578 560.828125 C 688.953613 560.828125 683.089844 556.963196 683.089844 550.408203 C 683.089844 543.025208 688.539673 540.956116 696.888672 539.369141 L 707.376953 537.298828 C 707.307922 531.433838 704.618347 528.605469 699.236328 528.605469 C 694.958374 528.605469 692.128723 530.743469 691.09375 534.814453 L 683.710938 534.332031 C 685.159912 527.018066 690.95636 522.601563 699.236328 522.601563 C 709.172363 522.601563 714.552734 528.12262 714.552734 538.058594 L 714.552734 551.857422 C 714.552734 553.582397 715.312744 554.203125 716.761719 554.203125 L 718.279297 554.203125 L 718.279297 560 L 715.865234 560 C 712.553223 560.06897 708.205688 559.378174 707.929688 554.410156 C 706.342712 557.860168 702.270569 560.828125 696.267578 560.828125 Z M 755.677734 560.828125 C 750.157715 560.828125 746.294006 558.620544 744.292969 554.894531 L 744.085938 560 L 737.392578 560 L 737.392578 511.009766 L 744.568359 511.009766 L 744.568359 528.191406 C 746.707397 524.534424 750.433716 522.601563 755.677734 522.601563 C 766.165771 522.601563 771.132813 531.502869 771.132813 541.714844 C 771.132813 551.926819 766.165771 560.828125 755.677734 560.828125 Z M 930.591797 560.828125 C 920.10376 560.828125 913.273438 553.375732 913.273438 541.714844 C 913.273438 530.053955 920.10376 522.601563 930.591797 522.601563 C 939.147766 522.601563 946.59967 528.259888 947.013672 541.300781 L 947.083984 543.785156 L 920.794922 543.785156 C 921.346924 550.61615 924.795776 554.617188 930.591797 554.617188 C 934.248779 554.617188 937.49176 552.548279 939.009766 549.029297 L 946.53125 549.580078 C 944.392273 556.480042 937.974792 560.828125 930.591797 560.828125 Z M 1030.021484 560.828125 C 1021.948486 560.828125 1017.808594 554.893921 1017.808594 546.958984 L 1017.808594 523.429688 L 1024.984375 523.429688 L 1024.984375 544.751953 C 1024.984375 551.237854 1026.916748 554.755859 1031.884766 554.755859 C 1037.059692 554.755859 1040.509766 551.237854 1040.509766 544.751953 L 1040.509766 523.429688 L 1047.685547 523.429688 L 1047.685547 560 L 1040.923828 560 L 1040.855469 553.996094 C 1038.923462 558.757019 1034.782471 560.828125 1030.021484 560.828125 Z M 1093.224609 560.828125 C 1085.151611 560.828125 1081.011719 554.89386 1081.011719 546.958984 L 1081.011719 523.429688 L 1088.1875 523.429688 L 1088.1875 544.751953 C 1088.1875 551.237854 1090.119873 554.755859 1095.087891 554.755859 C 1100.262939 554.755859 1103.712891 551.237854 1103.712891 544.751953 L 1103.712891 523.429688 L 1110.888672 523.429688 L 1110.888672 560 L 1104.126953 560 L 1104.058594 553.996094 C 1102.126587 558.757019 1097.985596 560.828125 1093.224609 560.828125 Z M 1156.154297 560.828125 C 1145.666382 560.828125 1138.833984 553.37561 1138.833984 541.714844 C 1138.833984 530.054077 1145.666382 522.601563 1156.154297 522.601563 C 1164.710327 522.601563 1172.162231 528.26001 1172.576172 541.300781 L 1172.644531 543.785156 L 1146.355469 543.785156 C 1146.907471 550.61615 1150.358398 554.617188 1156.154297 554.617188 C 1159.811401 554.617188 1163.054199 552.548279 1164.572266 549.029297 L 1172.091797 549.580078 C 1169.952759 556.47998 1163.537354 560.828125 1156.154297 560.828125 Z M 1231.431641 560.828125 C 1220.943604 560.828125 1214.113281 553.37561 1214.113281 541.714844 C 1214.113281 530.054077 1220.943604 522.601563 1231.431641 522.601563 C 1241.919678 522.601563 1248.751953 530.054077 1248.751953 541.714844 C 1248.751953 553.37561 1241.919678 560.828125 1231.431641 560.828125 Z M 1342.9375 560.828125 C 1332.449463 560.828125 1325.617188 553.375549 1325.617188 541.714844 C 1325.617188 530.054138 1332.449463 522.601563 1342.9375 522.601563 C 1353.425537 522.601563 1360.255859 530.054138 1360.255859 541.714844 C 1360.255859 553.375549 1353.425537 560.828125 1342.9375 560.828125 Z M 1415.9375 560.828125 C 1405.449463 560.828125 1400.482422 551.926697 1400.482422 541.714844 C 1400.482422 531.503174 1405.449463 522.601563 1415.9375 522.601563 C 1421.181519 522.601563 1424.907837 524.534424 1427.046875 528.191406 L 1427.046875 511.009766 L 1434.222656 511.009766 L 1434.222656 560 L 1427.53125 560 L 1427.324219 554.894531 C 1425.323242 558.620544 1421.45752 560.828125 1415.9375 560.828125 Z M 1457.337891 560.828125 C 1446.849854 560.828125 1440.019531 553.375488 1440.019531 541.714844 C 1440.019531 530.054199 1446.849854 522.601563 1457.337891 522.601563 C 1467.825928 522.601563 1474.658203 530.054199 1474.658203 541.714844 C 1474.658203 553.375488 1467.825928 560.828125 1457.337891 560.828125 Z M 1561.873047 560.828125 C 1552.626953 560.828125 1545.934814 556.066345 1545.382813 548.476563 L 1552.765625 547.994141 C 1553.455566 552.133911 1556.69873 554.6875 1561.804688 554.6875 C 1565.047729 554.6875 1569.255859 553.582153 1569.255859 550.201172 C 1569.18689 546.199158 1564.564453 545.717285 1560.5625 544.820313 C 1552.972534 543.164307 1546.279297 541.162964 1546.279297 534.125 C 1546.279297 527.018005 1552.005859 522.601563 1561.044922 522.601563 C 1568.841919 522.601563 1574.914917 527.225708 1576.087891 534.470703 L 1568.705078 534.884766 C 1567.946167 531.020752 1564.21875 528.673828 1560.423828 528.673828 C 1556.697754 528.673828 1553.661499 530.606628 1553.730469 533.849609 C 1553.730469 537.161621 1558.078735 538.540466 1561.804688 539.230469 C 1570.77478 540.886475 1576.708984 543.30249 1576.708984 550.478516 C 1576.708984 557.654297 1569.394043 560.828125 1561.873047 560.828125 Z M 1651.160156 560.828125 C 1640.672119 560.828125 1633.839844 553.375427 1633.839844 541.714844 C 1633.839844 530.05426 1640.672119 522.601563 1651.160156 522.601563 C 1661.648071 522.601563 1668.478516 530.05426 1668.478516 541.714844 C 1668.478516 553.375427 1661.648071 560.828125 1651.160156 560.828125 Z M 1688.419922 560.828125 C 1679.173828 560.828125 1672.479736 556.066345 1671.927734 548.476563 L 1679.3125 547.994141 C 1680.002441 552.133911 1683.243652 554.6875 1688.349609 554.6875 C 1691.592651 554.6875 1695.802734 553.582153 1695.802734 550.201172 C 1695.733765 546.199158 1691.111328 545.717285 1687.109375 544.820313 C 1679.519409 543.164307 1672.826172 541.162964 1672.826172 534.125 C 1672.826172 527.018005 1678.552734 522.601563 1687.591797 522.601563 C 1695.388794 522.601563 1701.459717 527.225708 1702.632813 534.470703 L 1695.25 534.884766 C 1694.490967 531.020752 1690.765747 528.673828 1686.970703 528.673828 C 1683.244751 528.673828 1680.208374 530.606628 1680.277344 533.849609 C 1680.277344 537.161621 1684.623657 538.540466 1688.349609 539.230469 C 1697.319702 540.886475 1703.253906 543.30249 1703.253906 550.478516 C 1703.253906 557.654297 1695.940918 560.828125 1688.419922 560.828125 Z M 1723.195313 560.828125 C 1713.949219 560.828125 1707.25708 556.066345 1706.705078 548.476563 L 1714.087891 547.994141 C 1714.777832 552.133911 1718.020996 554.6875 1723.126953 554.6875 C 1726.369995 554.6875 1730.578125 553.582153 1730.578125 550.201172 C 1730.509155 546.199158 1725.886719 545.717285 1721.884766 544.820313 C 1714.2948 543.164307 1707.601563 541.162964 1707.601563 534.125 C 1707.601563 527.018005 1713.328125 522.601563 1722.367188 522.601563 C 1730.164185 522.601563 1736.237061 527.225708 1737.410156 534.470703 L 1730.027344 534.884766 C 1729.268311 531.020752 1725.541138 528.673828 1721.746094 528.673828 C 1718.020142 528.673828 1714.983765 530.606628 1715.052734 533.849609 C 1715.052734 537.161621 1719.401001 538.540466 1723.126953 539.230469 C 1732.097046 540.886475 1738.03125 543.30249 1738.03125 550.478516 C 1738.03125 557.654297 1730.716309 560.828125 1723.195313 560.828125 Z M 1775.291016 560.828125 C 1769.770996 560.828125 1765.907227 558.620544 1763.90625 554.894531 L 1763.699219 560 L 1757.005859 560 L 1757.005859 511.009766 L 1764.181641 511.009766 L 1764.181641 528.191406 C 1766.320679 524.534424 1770.046997 522.601563 1775.291016 522.601563 C 1785.778931 522.601563 1790.746094 531.503357 1790.746094 541.714844 C 1790.746094 551.926636 1785.778931 560.828125 1775.291016 560.828125 Z M 1829.179688 560.828125 C 1818.691772 560.828125 1811.861328 553.375366 1811.861328 541.714844 C 1811.861328 530.054321 1818.691772 522.601563 1829.179688 522.601563 C 1837.735718 522.601563 1845.187622 528.260254 1845.601563 541.300781 L 1845.669922 543.785156 L 1819.380859 543.785156 C 1819.932861 550.61615 1823.383789 554.617188 1829.179688 554.617188 C 1832.836792 554.617188 1836.07959 552.548279 1837.597656 549.029297 L 1845.119141 549.580078 C 1842.980103 556.479858 1836.562744 560.828125 1829.179688 560.828125 Z M 776.583984 560 L 776.583984 523.429688 L 783.138672 523.429688 L 783.345703 530.330078 C 784.518677 525.638062 787.279968 523.429688 792.041016 523.429688 L 795.558594 523.429688 L 795.558594 529.363281 L 791.970703 529.363281 C 786.312683 529.363281 783.759766 532.468384 783.759766 538.609375 L 783.759766 560 L 776.583984 560 Z M 799.492188 560 L 799.492188 523.429688 L 806.667969 523.429688 L 806.667969 560 L 799.492188 560 Z M 854.486328 560 L 854.486328 511.009766 L 861.662109 511.009766 L 861.662109 528.328125 C 863.801086 524.326111 867.940796 522.601563 872.425781 522.601563 C 880.63678 522.601563 884.707031 528.673828 884.707031 536.470703 L 884.707031 560 L 877.53125 560 L 877.53125 538.955078 C 877.53125 532.538086 875.600098 529.019531 870.494141 529.019531 C 865.043091 529.019531 861.662109 532.538086 861.662109 538.955078 L 861.662109 560 L 854.486328 560 Z M 905.683594 560 C 898.64563 560 894.849609 556.342041 894.849609 549.580078 L 894.849609 529.363281 L 889.330078 529.363281 L 889.330078 523.429688 L 894.849609 523.429688 L 894.849609 515.150391 L 902.027344 515.150391 L 902.027344 523.429688 L 911.755859 523.429688 L 911.755859 529.363281 L 902.027344 529.363281 L 902.027344 549.580078 C 902.027344 552.547058 903.475708 554.066406 906.304688 554.066406 L 911.6875 554.066406 L 911.6875 560 L 905.683594 560 Z M 952.535156 560 L 952.535156 523.429688 L 959.089844 523.429688 L 959.296875 530.330078 C 960.469849 525.638062 963.229248 523.429688 967.990234 523.429688 L 971.509766 523.429688 L 971.509766 529.363281 L 967.921875 529.363281 C 962.263855 529.363281 959.710938 532.468384 959.710938 538.609375 L 959.710938 560 L 952.535156 560 Z M 995.107422 560 L 995.107422 529.777344 L 990.070313 529.777344 L 990.070313 523.84375 L 995.107422 523.84375 L 995.107422 521.705078 C 995.107422 515.081055 998.419739 511.009766 1005.802734 511.009766 L 1011.943359 511.009766 L 1011.943359 516.943359 L 1006.285156 516.943359 C 1003.939148 516.943359 1002.283203 518.738098 1002.283203 521.705078 L 1002.283203 523.84375 L 1011.460938 523.84375 L 1011.460938 529.777344 L 1002.283203 529.777344 L 1002.283203 560 L 995.107422 560 Z M 1069.351563 560 C 1062.313599 560 1058.519531 556.34198 1058.519531 549.580078 L 1058.519531 529.363281 L 1052.998047 529.363281 L 1052.998047 523.429688 L 1058.519531 523.429688 L 1058.519531 515.150391 L 1065.695313 515.150391 L 1065.695313 523.429688 L 1075.423828 523.429688 L 1075.423828 529.363281 L 1065.695313 529.363281 L 1065.695313 549.580078 C 1065.695313 552.547058 1067.143677 554.066406 1069.972656 554.066406 L 1075.355469 554.066406 L 1075.355469 560 L 1069.351563 560 Z M 1119.169922 560 L 1119.169922 523.429688 L 1125.724609 523.429688 L 1125.931641 530.330078 C 1127.104614 525.638062 1129.864014 523.429688 1134.625 523.429688 L 1138.144531 523.429688 L 1138.144531 529.363281 L 1134.556641 529.363281 C 1128.898682 529.363281 1126.345703 532.468384 1126.345703 538.609375 L 1126.345703 560 L 1119.169922 560 Z M 1196.242188 560 L 1196.242188 529.777344 L 1191.205078 529.777344 L 1191.205078 523.84375 L 1196.242188 523.84375 L 1196.242188 521.705078 C 1196.242188 515.081055 1199.554443 511.009766 1206.9375 511.009766 L 1213.078125 511.009766 L 1213.078125 516.943359 L 1207.419922 516.943359 C 1205.073853 516.943359 1203.417969 518.738098 1203.417969 521.705078 L 1203.417969 523.84375 L 1212.595703 523.84375 L 1212.595703 529.777344 L 1203.417969 529.777344 L 1203.417969 560 L 1196.242188 560 Z M 1254.203125 560 L 1254.203125 523.429688 L 1260.757813 523.429688 L 1260.964844 530.330078 C 1262.137817 525.638062 1264.897217 523.429688 1269.658203 523.429688 L 1273.177734 523.429688 L 1273.177734 529.363281 L 1269.589844 529.363281 C 1263.931885 529.363281 1261.378906 532.468384 1261.378906 538.609375 L 1261.378906 560 L 1254.203125 560 Z M 1293.601563 560 L 1293.601563 511.009766 L 1300.916016 511.009766 L 1300.916016 553.238281 L 1324.789063 553.238281 L 1324.789063 560 L 1293.601563 560 Z M 1365.707031 560 L 1365.707031 523.429688 L 1372.193359 523.429688 L 1372.400391 529.640625 C 1374.332397 524.741638 1378.541138 522.601563 1383.578125 522.601563 C 1391.789063 522.601563 1395.927734 528.536011 1395.927734 536.470703 L 1395.927734 560 L 1388.751953 560 L 1388.751953 538.609375 C 1388.751953 532.192383 1386.820923 528.673828 1381.714844 528.673828 C 1376.263916 528.673828 1372.882813 532.192383 1372.882813 538.609375 L 1372.882813 560 L 1365.707031 560 Z M 1480.109375 560 L 1480.109375 523.429688 L 1486.59375 523.429688 L 1486.800781 529.640625 C 1488.732788 524.741638 1492.943481 522.601563 1497.980469 522.601563 C 1506.191528 522.601563 1510.330078 528.536072 1510.330078 536.470703 L 1510.330078 560 L 1503.154297 560 L 1503.154297 538.609375 C 1503.154297 532.192383 1501.223267 528.673828 1496.117188 528.673828 C 1490.66626 528.673828 1487.285156 532.192383 1487.285156 538.609375 L 1487.285156 560 L 1480.109375 560 Z M 1532.341797 560 L 1532.341797 523.429688 L 1539.517578 523.429688 L 1539.517578 560 L 1532.341797 560 Z M 1743.480469 560 L 1743.480469 523.429688 L 1750.658203 523.429688 L 1750.658203 560 L 1743.480469 560 Z M 1804.960938 560 C 1800.130981 560 1796.957031 556.894836 1796.957031 551.996094 L 1796.957031 511.009766 L 1804.132813 511.009766 L 1804.132813 551.650391 C 1804.132813 553.306396 1804.891479 554.066406 1806.478516 554.066406 L 1809.513672 554.066406 L 1809.513672 560 L 1804.960938 560 Z M 697.648438 555.169922 C 703.237427 555.169922 707.515625 551.236389 707.515625 543.232422 L 707.515625 542.888672 L 699.650391 544.267578 C 694.544434 545.164551 690.541016 545.579468 690.541016 550.271484 C 690.541016 552.962463 692.81842 555.169922 697.648438 555.169922 Z M 753.882813 554.548828 C 760.851807 554.548828 763.681641 548.269836 763.681641 541.714844 C 763.681641 534.88385 760.920837 528.673828 753.882813 528.673828 C 746.844849 528.673828 744.015625 534.952881 744.015625 541.714844 C 744.015625 548.269836 746.844849 554.548828 753.882813 554.548828 Z M 1231.431641 554.548828 C 1237.710693 554.548828 1241.298828 549.718567 1241.298828 541.714844 C 1241.298828 533.711121 1237.710693 528.880859 1231.431641 528.880859 C 1225.152588 528.880859 1221.566406 533.711121 1221.566406 541.714844 C 1221.566406 549.718567 1225.152588 554.548828 1231.431641 554.548828 Z M 1342.9375 554.548828 C 1349.216431 554.548828 1352.802734 549.718506 1352.802734 541.714844 C 1352.802734 533.711182 1349.216431 528.880859 1342.9375 528.880859 C 1336.658447 528.880859 1333.070313 533.711182 1333.070313 541.714844 C 1333.070313 549.718506 1336.658447 554.548828 1342.9375 554.548828 Z M 1417.732422 554.548828 C 1424.770386 554.548828 1427.599609 548.269836 1427.599609 541.714844 C 1427.599609 534.952881 1424.770386 528.673828 1417.732422 528.673828 C 1410.694336 528.673828 1407.933594 534.88385 1407.933594 541.714844 C 1407.933594 548.269836 1410.763428 554.548828 1417.732422 554.548828 Z M 1457.337891 554.548828 C 1463.616943 554.548828 1467.205078 549.718506 1467.205078 541.714844 C 1467.205078 533.711182 1463.616943 528.880859 1457.337891 528.880859 C 1451.058838 528.880859 1447.470703 533.711182 1447.470703 541.714844 C 1447.470703 549.718506 1451.058838 554.548828 1457.337891 554.548828 Z M 1613.001953 554.548828 C 1619.971069 554.548828 1622.800781 548.338867 1622.800781 541.714844 C 1622.800781 535.159851 1619.971069 528.880859 1613.001953 528.880859 C 1606.032959 528.880859 1603.134766 535.159851 1603.134766 541.714844 C 1603.134766 548.269836 1606.102051 554.548828 1613.001953 554.548828 Z M 1651.160156 554.548828 C 1657.439087 554.548828 1661.027344 549.718384 1661.027344 541.714844 C 1661.027344 533.711304 1657.439087 528.880859 1651.160156 528.880859 C 1644.881104 528.880859 1641.292969 533.711304 1641.292969 541.714844 C 1641.292969 549.718384 1644.881104 554.548828 1651.160156 554.548828 Z M 1773.496094 554.548828 C 1780.465088 554.548828 1783.294922 548.269836 1783.294922 541.714844 C 1783.294922 534.88385 1780.53418 528.673828 1773.496094 528.673828 C 1766.45813 528.673828 1763.628906 534.952881 1763.628906 541.714844 C 1763.628906 548.269836 1766.45813 554.548828 1773.496094 554.548828 Z M 829.576172 552.064453 C 835.441223 552.064453 839.098999 547.234619 839.167969 540.472656 C 839.237 533.710632 835.579224 528.880859 829.576172 528.880859 C 823.573181 528.880859 819.986328 533.710632 819.986328 540.472656 C 819.986328 547.234619 823.642212 552.064453 829.576172 552.064453 Z M 920.931641 538.265625 L 939.494141 538.265625 C 938.528137 531.227661 934.73175 528.8125 930.591797 528.8125 C 925.209778 528.8125 921.828674 532.331604 920.931641 538.265625 Z M 1146.494141 538.265625 L 1165.054688 538.265625 C 1164.088745 531.227661 1160.294312 528.8125 1156.154297 528.8125 C 1150.772339 528.8125 1147.391113 532.331604 1146.494141 538.265625 Z M 1819.519531 538.265625 L 1838.080078 538.265625 C 1837.114136 531.227661 1833.319702 528.8125 1829.179688 528.8125 C 1823.797729 528.8125 1820.416504 532.331604 1819.519531 538.265625 Z M 799.423828 517.978516 L 799.423828 511.009766 L 806.875 511.009766 L 806.875 517.978516 L 799.423828 517.978516 Z M 1532.273438 517.978516 L 1532.273438 511.009766 L 1539.724609 511.009766 L 1539.724609 517.978516 L 1532.273438 517.978516 Z M 1743.412109 517.978516 L 1743.412109 511.009766 L 1750.865234 511.009766 L 1750.865234 517.978516 L 1743.412109 517.978516 Z"/>
    <g id="Group">
        <path id="Oval-copy" fill="#ffffff" fill-rule="evenodd" stroke="none" d="M 1509.51709 181 C 1509.51709 81.036499 1428.480591 0 1328.51709 0 C 1228.553589 0 1147.51709 81.036499 1147.51709 181 C 1147.51709 280.963531 1228.553589 362 1328.51709 362 C 1428.480591 362 1509.51709 280.963531 1509.51709 181 Z"/>
        <path id="path1" fill="#1e40af" fill-rule="evenodd" stroke="none" d="M 1330.906494 287.613617 L 1304.99707 261.904968 L 1365.352051 201.55014 L 1229.17688 201.55014 L 1229.17688 163.79071 L 1365.352051 163.79071 L 1304.99707 103.536255 L 1330.906494 77.727234 L 1435.849609 182.670441 Z"/>
    </g>
    <g id="Group-copy">
        <path id="GET-GABE" fill="#ffffff" fill-rule="evenodd" stroke="none" d="M 72.943359 361.986328 C 28.387386 361.986328 -0.289063 326.695557 -0.289063 280.375 C -0.289063 234.054443 28.386475 198.320313 74.707031 198.320313 C 109.998917 198.320313 133.82077 219.05365 141.320313 250.595703 L 108.013672 252.361328 C 103.822769 236.259399 92.132019 225.671875 74.044922 225.671875 C 45.590858 225.671875 32.798828 249.71521 32.798828 280.375 C 32.798828 310.81427 45.811424 334.634766 74.044922 334.634766 C 94.999466 334.634766 106.911591 320.959229 109.337891 301.328125 L 74.044922 301.328125 L 74.044922 277.066406 L 141.761719 277.066406 L 141.761719 358.457031 L 121.910156 358.457031 L 120.144531 335.296875 C 112.865585 351.619324 94.559616 361.986328 72.943359 361.986328 Z M 150.804688 358.457031 L 207.273438 201.849609 L 244.109375 201.849609 L 300.576172 358.457031 L 267.929688 358.457031 L 256.019531 324.046875 L 195.361328 324.046875 L 183.451172 358.457031 L 150.804688 358.457031 Z M 312.265625 358.457031 L 312.265625 201.849609 L 369.173828 201.849609 C 411.082947 201.849609 432.037109 215.525208 432.037109 245.302734 C 432.037109 263.610352 420.56842 275.30011 400.716797 277.505859 C 425.2005 279.711548 438.654297 292.725403 438.654297 314.121094 C 438.654297 343.016296 417.701416 358.457031 377.998047 358.457031 L 312.265625 358.457031 Z M 457.625 358.457031 L 457.625 201.849609 L 565.486328 201.849609 L 565.486328 229.201172 L 489.828125 229.201172 L 489.828125 266.478516 L 562.837891 266.478516 L 562.837891 293.388672 L 489.828125 293.388672 L 489.828125 331.105469 L 567.25 331.105469 L 567.25 358.457031 L 457.625 358.457031 Z M 344.470703 331.988281 L 378.658203 331.988281 C 395.201233 331.988281 406.009766 325.150391 406.009766 311.695313 C 406.009766 297.799133 395.421814 290.740234 378.658203 290.740234 L 344.470703 290.740234 L 344.470703 331.988281 Z M 204.404297 297.138672 L 246.976563 297.138672 L 225.580078 235.15625 L 204.404297 297.138672 Z M 344.470703 266.919922 L 371.601563 266.919922 C 388.806274 266.919922 399.392578 260.30127 399.392578 247.728516 C 399.392578 234.494019 389.247437 228.318359 371.601563 228.318359 L 344.470703 228.318359 L 344.470703 266.919922 Z M 236.830078 163.529297 C 192.274063 163.529297 163.599609 128.236633 163.599609 81.916016 C 163.599609 35.595398 192.273148 -0.136719 238.59375 -0.136719 C 273.885681 -0.136719 297.707489 20.596497 305.207031 52.138672 L 271.900391 53.904297 C 267.709473 37.802368 256.018738 27.214844 237.931641 27.214844 C 209.477539 27.214844 196.685547 51.256165 196.685547 81.916016 C 196.685547 112.355225 209.69812 136.177734 237.931641 136.177734 C 258.8862 136.177734 270.798309 122.502197 273.224609 102.871094 L 237.931641 102.871094 L 237.931641 78.607422 L 305.648438 78.607422 L 305.648438 160 L 285.796875 160 L 284.033203 136.839844 C 276.754242 153.162292 258.44635 163.529297 236.830078 163.529297 Z M 326.162109 160 L 326.162109 3.392578 L 434.023438 3.392578 L 434.023438 30.744141 L 358.365234 30.744141 L 358.365234 68.019531 L 431.376953 68.019531 L 431.376953 94.929688 L 358.365234 94.929688 L 358.365234 132.648438 L 435.787109 132.648438 L 435.787109 160 L 326.162109 160 Z M 492.474609 160 L 492.474609 30.744141 L 445.492188 30.744141 L 445.492188 3.392578 L 571.662109 3.392578 L 571.662109 30.744141 L 524.679688 30.744141 L 524.679688 160 L 492.474609 160 Z"/>
        <path id="IN" fill="#ffffff" fill-rule="evenodd" stroke="none" d="M 766.133911 3.723633 L 766.133911 359 L 839.190674 359 L 839.190674 117.312012 L 979.299683 359 L 1063.865479 359 L 1063.865479 3.723633 L 990.808716 3.723633 L 990.808716 253.417847 L 847.697388 3.723633 Z M 632.029602 3.723633 L 632.029602 359 L 705.086426 359 L 705.086426 3.723633 Z"/>
    </g>
</svg>
